<svg version="1.1" id="Layer_1" xmlns="http://www.w3.org/2000/svg" xmlns:xlink="http://www.w3.org/1999/xlink" x="0px" y="0px"
	 viewBox="0 0 45.23 46.84" style="enable-background:new 0 0 45.23 46.84;" xml:space="preserve">
<style type="text/css">
	.st0{fill:#93824E;}
</style>
<g>
	<g>
		<path class="st0" d="M44.72,0l-1.04,2.15C37.18,15.7,29.58,31,22.75,44.41l-1.23,2.43l-1.17-2.42l-5.62-11.56H14.7l-0.29-0.6
			l-6.08-12.7H8.29l-0.2-0.41C5.34,13.4,2.65,7.63,0,1.83L0.26,1.7C3.3,7.11,6.29,12.55,9.23,18h0.05l0.23,0.44l6.55,12.18h0.04
			l0.33,0.63l5.06,9.57l3.94-8.24C29.87,23.38,35.3,12.33,40,2.95L26.47,2.91l-3.97,7.97l-1.1,2.23l-1.08-2.22L16.39,2.8h-2.65
			l7.77,16.07l6.38-12.86l0.23-0.47h0.5c0.87,0,6.63,0.01,7.37,0.01l-0.57,1.12L21.9,33.49l-0.45,0.9l-0.44-0.89L5.3,1.8l0.27-0.13
			l15.87,30.5L33.47,7.13l-4.31,0.05c-1.3,2.71-7.35,15.42-7.63,16C20.5,21.13,11.25,2.7,10.2,0.61c1.63-0.02,5.94-0.08,7.61-0.1
			l0.32,0.64l3.24,6.43l3.11-6.54l0.34-0.73l0.83-0.01C27,0.27,43.97,0.02,44.72,0z"/>
	</g>
</g>
</svg>
