<?xml version="1.0" encoding="UTF-8"?><svg id="Layer_1" xmlns="http://www.w3.org/2000/svg" viewBox="0 0 1763 416.12"><defs><style>.cls-1{fill:#93824e;}</style></defs><path class="cls-1" d="M208.02,26.58C107.77,26.58,26.5,107.85,26.5,208.1s81.27,181.44,181.52,181.44,181.52-81.27,181.52-181.44S308.27,26.58,208.02,26.58Zm119.88,94.76c-37.48,77.39-75.61,154.54-114.47,231.2l-4.85,9.53-4.69-9.45-31.51-63.9h-.24l-1.13-2.42-34.01-69.88h-.24l-.81-1.7c-15.27-31.26-30.05-62.85-45.08-94.27l1.13-.57c16.16,30.13,32.64,60.02,48.55,90.24h.32l.89,1.78,35.87,67.78h.24l1.29,2.59,29.24,56.23c34.17-71.66,69.15-142.91,104.61-213.83l-78.6-.08c-5.98,12.04-24.15,48.87-26.58,53.72-2.26-4.69-20.84-42.73-26.34-54.13l-18.1,.08,45,92.58,35.95-72.95,.97-1.86h2.02c2.99-.08,36.51,0,38.45-.08l-2.26,4.6-73.59,146.95-1.86,3.55-1.78-3.55c.97-.73-89.35-174.33-85.31-173.77l87.09,168.43,67.62-139.84-26.25,.32-37.65,78.6-3.31,7.03-3.55-7.03-52.67-105.5-3.15-6.38,7.11-.08c.49-.08,30.94-.32,30.94-.32l1.29,2.59,19.31,38.45,18.58-39.02,1.37-2.91,3.39-.08,91.45-1.21,9.53-.08-4.2,8.64Z"/><g><path class="cls-1" d="M637.21,144.64l-64.06,147.03h-26.88l-64.27-147.03h29.62l48.94,113.42,49.36-113.42h27.3Z"/><path class="cls-1" d="M775,257.64h-73.51l-14.49,34.03h-28.14l66.16-147.03h26.89l66.37,147.03h-28.57l-14.7-34.03Zm-9.03-21.42l-27.72-64.27-27.52,64.27h55.24Z"/><path class="cls-1" d="M964.66,291.67l-30.04-43.06c-1.26,.14-3.15,.21-5.67,.21h-33.19v42.85h-27.31V144.64h60.49c12.74,0,23.84,2.11,33.29,6.3,9.45,4.2,16.7,10.22,21.74,18.07s7.56,17.15,7.56,27.94-2.7,20.58-8.09,28.57c-5.39,7.98-13.13,13.93-23.21,17.85l33.82,48.3h-29.41Zm-9.87-116.36c-6.16-5.04-15.19-7.57-27.09-7.57h-31.92v58.6h31.92c11.9,0,20.93-2.55,27.09-7.67,6.16-5.1,9.24-12.35,9.24-21.73s-3.08-16.59-9.24-21.63Z"/><path class="cls-1" d="M1081.65,284c-12.05-6.51-21.5-15.54-28.36-27.09-6.86-11.55-10.29-24.47-10.29-38.75s3.43-27.2,10.29-38.75c6.86-11.56,16.31-20.58,28.36-27.1,12.04-6.51,25.55-9.77,40.53-9.77s28.5,3.26,40.54,9.77c12.04,6.52,21.49,15.51,28.36,26.99,6.86,11.49,10.29,24.44,10.29,38.86s-3.43,27.37-10.29,38.85c-6.86,11.49-16.31,20.48-28.36,26.99-12.04,6.52-25.56,9.77-40.54,9.77s-28.5-3.25-40.53-9.77Zm67-20.79c7.84-4.41,14-10.57,18.48-18.48,4.48-7.91,6.72-16.77,6.72-26.57s-2.24-18.66-6.72-26.57-10.64-14.07-18.48-18.48c-7.85-4.41-16.67-6.62-26.47-6.62s-18.62,2.21-26.46,6.62c-7.84,4.41-14,10.57-18.48,18.48s-6.72,16.77-6.72,26.57,2.24,18.66,6.72,26.57c4.48,7.91,10.64,14.07,18.48,18.48,7.84,4.41,16.66,6.61,26.46,6.61s18.62-2.2,26.47-6.61Z"/><path class="cls-1" d="M1379.16,228.24c5.53,6.3,8.3,14.49,8.3,24.57,0,12.46-4.55,22.05-13.66,28.77-9.1,6.72-22.61,10.08-40.53,10.08h-65.53V144.64h61.33c15.96,0,28.38,3.26,37.28,9.77,8.89,6.52,13.34,15.79,13.34,27.83,0,8.4-2.2,15.48-6.61,21.21-4.41,5.74-10.4,9.87-17.96,12.39,10.5,1.96,18.52,6.09,24.05,12.39Zm-100.71-74.35v58.6h50.2c12.88,0,22.79-2.49,29.72-7.46s10.4-12.29,10.4-21.95-3.47-16.77-10.4-21.74-16.84-7.46-29.72-7.46h-50.2Zm87.27,121.09c7.35-4.97,11.03-12.64,11.03-23s-3.68-17.99-11.03-22.89c-7.35-4.9-18.17-7.35-32.45-7.35h-54.82v60.71h54.82c14.28,0,25.1-2.49,32.45-7.46Z"/><path class="cls-1" d="M1480.51,282.95c-11.62-6.51-20.76-15.44-27.41-26.78-6.65-11.34-9.98-24.01-9.98-38.02s3.32-26.67,9.98-38.02c6.65-11.34,15.79-20.27,27.41-26.78,11.62-6.51,24.64-9.77,39.06-9.77s27.45,3.23,39.07,9.66c11.62,6.45,20.76,15.34,27.41,26.67,6.65,11.34,9.98,24.09,9.98,38.23s-3.33,26.89-9.98,38.22c-6.65,11.34-15.79,20.24-27.41,26.68-11.63,6.44-24.65,9.66-39.07,9.66s-27.44-3.25-39.06-9.77Zm72.46-8.5c9.94-5.6,17.78-13.34,23.53-23.21,5.74-9.87,8.61-20.9,8.61-33.08s-2.87-23.21-8.61-33.08c-5.74-9.88-13.58-17.61-23.53-23.21-9.95-5.6-21.08-8.4-33.4-8.4s-23.49,2.8-33.5,8.4c-10.02,5.6-17.89,13.33-23.63,23.21-5.74,9.87-8.61,20.9-8.61,33.08s2.87,23.21,8.61,33.08c5.74,9.87,13.62,17.61,23.63,23.21,10,5.6,21.17,8.4,33.5,8.4s23.45-2.8,33.4-8.4Z"/><path class="cls-1" d="M1703.77,241.05v50.62h-10.71v-50.62l-59.23-96.41h11.76l53.14,86.54,53.14-86.54h11.13l-59.23,96.41Z"/></g><path class="cls-1" d="M208.02,0C93.31,0,0,93.39,0,208.02s93.31,208.1,208.02,208.1,208.02-93.39,208.02-208.1S322.73,0,208.02,0Zm0,404c-108.01,0-195.9-87.89-195.9-195.98S100.01,12.12,208.02,12.12s195.9,87.89,195.9,195.9-87.89,195.98-195.9,195.98Z"/></svg>