<?xml version="1.0" encoding="utf-8"?>
<!-- Generator: Adobe Illustrator 26.3.1, SVG Export Plug-In . SVG Version: 6.00 Build 0)  -->
<svg version="1.1" id="Layer_1" xmlns="http://www.w3.org/2000/svg" xmlns:xlink="http://www.w3.org/1999/xlink" x="0px" y="0px"
	 viewBox="0 0 439 122" style="enable-background:new 0 0 439 122;" xml:space="preserve">
<style type="text/css">
	.st0{fill:#93824E;}
</style>
<g>
	<g>
		<path class="st0" d="M116.75,0l-2.71,5.61C97.07,40.97,77.24,80.9,59.41,115.89l-3.21,6.34l-3.05-6.32L38.48,85.75h-0.08
			l-0.76-1.57L21.78,51.04h-0.1l-0.52-1.07C13.98,34.97,6.96,19.91,0.04,4.78l0.68-0.34c7.93,14.12,15.74,28.31,23.41,42.54h0.13
			l0.6,1.15l17.09,31.79h0.1l0.86,1.64l13.2,24.97l10.28-21.5C77.99,61.01,92.16,32.18,104.43,7.7l-35.31-0.1l-10.36,20.8
			l-2.87,5.82l-2.82-5.79L42.82,7.31H35.9l20.28,41.94l16.65-33.56l0.6-1.23h1.3c2.27,0,17.3,0.03,19.23,0.03l-1.49,2.92L57.2,87.4
			l-1.17,2.35l-1.15-2.32l-41-82.73l0.7-0.34L56,83.95l31.39-65.35l-11.25,0.13c-3.39,7.07-19.18,40.24-19.91,41.75
			C53.54,55.14,29.4,7.05,26.66,1.59c4.25-0.05,15.5-0.21,19.86-0.26L47.36,3l8.46,16.78l8.12-17.07l0.89-1.9l2.17-0.03
			C70.5,0.7,114.79,0.05,116.75,0z"/>
	</g>
	<g>
		<g>
			<path class="st0" d="M129.89,71.7h-23l-4.54,10.65h-8.81l20.7-46.01h8.41l20.77,46.01h-8.94L129.89,71.7z M127.06,65l-8.67-20.11
				L109.78,65H127.06z"/>
		</g>
		<g>
			<path class="st0" d="M189.24,82.35l-9.4-13.47c-0.4,0.04-0.99,0.07-1.78,0.07h-10.38v13.41h-8.54V36.34h18.93
				c3.99,0,7.46,0.66,10.42,1.97c2.96,1.31,5.23,3.2,6.8,5.65c1.58,2.45,2.37,5.37,2.37,8.74c0,3.46-0.84,6.44-2.53,8.94
				c-1.69,2.5-4.11,4.36-7.26,5.59l10.58,15.12H189.24z M186.15,45.94c-1.93-1.58-4.76-2.37-8.48-2.37h-9.99v18.34h9.99
				c3.72,0,6.55-0.8,8.48-2.4c1.93-1.6,2.89-3.87,2.89-6.8C189.04,49.77,188.08,47.52,186.15,45.94z"/>
		</g>
		<g>
			<path class="st0" d="M225.85,79.95c-3.77-2.04-6.73-4.86-8.87-8.48c-2.15-3.62-3.22-7.66-3.22-12.13c0-4.47,1.07-8.51,3.22-12.13
				c2.15-3.61,5.1-6.44,8.87-8.48c3.77-2.04,8-3.06,12.68-3.06c4.69,0,8.92,1.02,12.68,3.06c3.77,2.04,6.73,4.85,8.87,8.45
				c2.15,3.59,3.22,7.65,3.22,12.16c0,4.51-1.08,8.57-3.22,12.16c-2.15,3.59-5.1,6.41-8.87,8.45c-3.77,2.04-8,3.06-12.68,3.06
				C233.84,83.01,229.62,81.99,225.85,79.95z M246.81,73.45c2.45-1.38,4.38-3.31,5.78-5.78c1.4-2.48,2.1-5.25,2.1-8.31
				c0-3.07-0.7-5.84-2.1-8.31c-1.4-2.48-3.33-4.4-5.78-5.78c-2.46-1.38-5.22-2.07-8.28-2.07c-3.07,0-5.83,0.69-8.28,2.07
				c-2.45,1.38-4.38,3.31-5.78,5.78c-1.4,2.48-2.1,5.25-2.1,8.31c0,3.07,0.7,5.84,2.1,8.31c1.4,2.48,3.33,4.4,5.78,5.78
				c2.45,1.38,5.22,2.07,8.28,2.07C241.6,75.52,244.36,74.83,246.81,73.45z"/>
		</g>
		<g>
			<path class="st0" d="M318.95,62.5c1.73,1.97,2.6,4.54,2.6,7.69c0,3.9-1.42,6.9-4.27,9c-2.85,2.1-7.08,3.16-12.69,3.16h-20.51
				V36.34h19.19c4.99,0,8.88,1.02,11.67,3.06c2.78,2.04,4.17,4.94,4.17,8.71c0,2.63-0.69,4.84-2.07,6.64
				c-1.38,1.8-3.25,3.09-5.62,3.88C314.71,59.24,317.22,60.53,318.95,62.5z M287.43,39.24v18.34h15.71c4.03,0,7.13-0.78,9.3-2.33
				c2.17-1.55,3.25-3.84,3.25-6.87c0-2.98-1.08-5.25-3.25-6.8c-2.17-1.55-5.27-2.33-9.3-2.33H287.43z M314.74,77.13
				c2.3-1.55,3.45-3.95,3.45-7.2s-1.15-5.63-3.45-7.16c-2.3-1.53-5.68-2.3-10.16-2.3h-17.15v18.99h17.15
				C309.06,79.46,312.44,78.68,314.74,77.13z"/>
		</g>
		<g>
			<path class="st0" d="M350.66,79.62c-3.64-2.04-6.5-4.83-8.58-8.38c-2.08-3.55-3.12-7.51-3.12-11.9c0-4.38,1.04-8.35,3.12-11.9
				c2.08-3.55,4.94-6.34,8.58-8.38c3.64-2.04,7.71-3.06,12.23-3.06c4.51,0,8.59,1.01,12.23,3.02c3.64,2.02,6.49,4.8,8.58,8.35
				c2.08,3.55,3.12,7.54,3.12,11.96c0,4.43-1.04,8.41-3.12,11.96c-2.08,3.55-4.94,6.33-8.58,8.35c-3.64,2.02-7.71,3.02-12.23,3.02
				C358.37,82.68,354.3,81.66,350.66,79.62z M373.34,76.96c3.11-1.75,5.56-4.17,7.36-7.26c1.8-3.09,2.69-6.54,2.69-10.35
				s-0.9-7.26-2.69-10.35c-1.8-3.09-4.25-5.51-7.36-7.26c-3.11-1.75-6.6-2.63-10.45-2.63c-3.86,0-7.35,0.88-10.48,2.63
				c-3.13,1.75-5.6,4.17-7.39,7.26c-1.8,3.09-2.7,6.54-2.7,10.35s0.9,7.26,2.7,10.35c1.8,3.09,4.26,5.51,7.39,7.26
				c3.13,1.75,6.63,2.63,10.48,2.63C366.74,79.59,370.22,78.72,373.34,76.96z"/>
		</g>
		<g>
			<path class="st0" d="M420.52,66.51v15.84h-3.35V66.51l-18.53-30.17h3.68l16.63,27.08l16.63-27.08h3.48L420.52,66.51z"/>
		</g>
	</g>
</g>
</svg>
